# MagicaVoxel @ Ephtracy

# group
o 

# material
mtllib Laptop.mtl
usemtl palette

# normals
vn -1 0 0
vn 1 0 0
vn 0 0 1
vn 0 0 -1
vn 0 -1 0
vn 0 1 0

# texcoords
vt 0.927734 0.5
vt 0.982422 0.5
vt 0.986328 0.5
vt 0.990234 0.5
vt 0.994141 0.5

# verts
v -1 0.1 0.8
v -1 0.1 -0.9
v -1 0.2 0.7
v -1 0.2 0.6
v -1 0.2 -0.9
v -1 1.8 0.8
v -1 1.8 0.7
v -1 1.8 0.6
v -0.9 0 0.8
v -0.9 0 -0.8
v -0.9 0.1 0.8
v -0.9 0.1 -0.8
v 0.9 0 0.8
v 0.9 0 -0.8
v 0.9 0.1 0.8
v 0.9 0.1 0.7
v 0.9 0.1 0.6
v 0.9 0.1 -0.8
v 1 0.1 0.8
v 1 0.1 0.7
v 1 0.1 0.6
v 1 0.1 -0.9
v 1 0.2 0.6
v 1 0.2 -0.9
v 1 1.8 0.8
v 1 1.8 0.7
v 1 1.8 0.6
v -1 0.1 0.8
v -1 1.8 0.8
v -0.9 0 0.8
v -0.9 0.1 0.8
v -0.1 1 0.8
v -0.1 1.1 0.8
v -0.1 1.2 0.8
v -0.1 1.4 0.8
v 0 0.8 0.8
v 0 1 0.8
v 0 1.2 0.8
v 0 1.4 0.8
v 0.1 0.8 0.8
v 0.1 1 0.8
v 0.1 1.2 0.8
v 0.1 1.4 0.8
v 0.2 1 0.8
v 0.2 1.1 0.8
v 0.2 1.2 0.8
v 0.2 1.4 0.8
v 0.9 0 0.8
v 0.9 0.1 0.8
v 1 0.1 0.8
v 1 1.8 0.8
v -1 0.2 0.6
v -1 1.8 0.6
v -0.9 0.3 0.6
v -0.9 1.7 0.6
v -0.1 1 0.6
v -0.1 1.1 0.6
v -0.1 1.2 0.6
v -0.1 1.4 0.6
v 0 0.8 0.6
v 0 1 0.6
v 0 1.2 0.6
v 0 1.4 0.6
v 0.1 0.8 0.6
v 0.1 1 0.6
v 0.1 1.2 0.6
v 0.1 1.4 0.6
v 0.2 1 0.6
v 0.2 1.1 0.6
v 0.2 1.2 0.6
v 0.2 1.4 0.6
v 0.9 0.3 0.6
v 0.9 1.7 0.6
v 1 0.2 0.6
v 1 1.8 0.6
v -0.9 0 -0.8
v -0.9 0.1 -0.8
v 0.9 0 -0.8
v 0.9 0.1 -0.8
v -1 0.1 -0.9
v -1 0.2 -0.9
v 1 0.1 -0.9
v 1 0.2 -0.9
v -0.9 0 0.8
v 0.9 0 0.8
v -0.9 0 -0.8
v 0.9 0 -0.8
v -1 0.1 0.8
v -0.9 0.1 0.8
v 0.9 0.1 0.8
v 1 0.1 0.8
v 0.9 0.1 0.7
v 1 0.1 0.7
v 0.9 0.1 0.6
v 1 0.1 0.6
v -0.9 0.1 -0.8
v 0.9 0.1 -0.8
v -1 0.1 -0.9
v 1 0.1 -0.9
v -1 0.2 0.6
v 1 0.2 0.6
v -0.9 0.2 0.4
v -0.8 0.2 0.4
v -0.7 0.2 0.4
v -0.3 0.2 0.4
v -0.2 0.2 0.4
v -0.1 0.2 0.4
v 0 0.2 0.4
v 0.1 0.2 0.4
v 0.2 0.2 0.4
v 0.3 0.2 0.4
v 0.4 0.2 0.4
v 0.6 0.2 0.4
v 0.7 0.2 0.4
v 0.9 0.2 0.4
v -0.9 0.2 0.3
v -0.8 0.2 0.3
v -0.7 0.2 0.3
v -0.3 0.2 0.3
v -0.2 0.2 0.3
v -0.1 0.2 0.3
v 0 0.2 0.3
v 0.1 0.2 0.3
v 0.2 0.2 0.3
v 0.3 0.2 0.3
v 0.4 0.2 0.3
v 0.6 0.2 0.3
v 0.7 0.2 0.3
v 0.9 0.2 0.3
v -0.9 0.2 0.2
v -0.8 0.2 0.2
v -0.6 0.2 0.2
v -0.5 0.2 0.2
v -0.4 0.2 0.2
v -0.3 0.2 0.2
v -0.2 0.2 0.2
v -0.1 0.2 0.2
v 0 0.2 0.2
v 0.1 0.2 0.2
v 0.2 0.2 0.2
v 0.3 0.2 0.2
v 0.4 0.2 0.2
v 0.5 0.2 0.2
v 0.6 0.2 0.2
v 0.7 0.2 0.2
v 0.8 0.2 0.2
v 0.9 0.2 0.2
v -0.9 0.2 0.1
v -0.8 0.2 0.1
v -0.6 0.2 0.1
v -0.5 0.2 0.1
v -0.4 0.2 0.1
v -0.3 0.2 0.1
v -0.2 0.2 0.1
v -0.1 0.2 0.1
v 0 0.2 0.1
v 0.1 0.2 0.1
v 0.2 0.2 0.1
v 0.3 0.2 0.1
v 0.4 0.2 0.1
v 0.5 0.2 0.1
v 0.6 0.2 0.1
v 0.7 0.2 0.1
v 0.8 0.2 0.1
v 0.9 0.2 0.1
v -0.9 0.2 -5.96046e-08
v -0.8 0.2 -5.96046e-08
v -0.7 0.2 -5.96046e-08
v -0.3 0.2 -5.96046e-08
v -0.2 0.2 -5.96046e-08
v -0.1 0.2 -5.96046e-08
v 0 0.2 -5.96046e-08
v 0.1 0.2 -5.96046e-08
v 0.2 0.2 -5.96046e-08
v 0.3 0.2 -5.96046e-08
v 0.4 0.2 -5.96046e-08
v 0.5 0.2 -5.96046e-08
v 0.6 0.2 -5.96046e-08
v 0.7 0.2 -5.96046e-08
v 0.8 0.2 -5.96046e-08
v 0.9 0.2 -5.96046e-08
v -0.9 0.2 -0.1
v -0.8 0.2 -0.1
v -0.7 0.2 -0.1
v -0.3 0.2 -0.1
v -0.2 0.2 -0.1
v -0.1 0.2 -0.1
v 0 0.2 -0.1
v 0.1 0.2 -0.1
v 0.2 0.2 -0.1
v 0.3 0.2 -0.1
v 0.4 0.2 -0.1
v 0.5 0.2 -0.1
v 0.6 0.2 -0.1
v 0.7 0.2 -0.1
v 0.8 0.2 -0.1
v 0.9 0.2 -0.1
v -0.9 0.2 -0.2
v -0.7 0.2 -0.2
v -0.6 0.2 -0.2
v -0.3 0.2 -0.2
v -0.2 0.2 -0.2
v 0.3 0.2 -0.2
v 0.5 0.2 -0.2
v 0.6 0.2 -0.2
v 0.7 0.2 -0.2
v 0.9 0.2 -0.2
v -0.9 0.2 -0.3
v -0.7 0.2 -0.3
v -0.6 0.2 -0.3
v -0.3 0.2 -0.3
v -0.2 0.2 -0.3
v 0.3 0.2 -0.3
v 0.5 0.2 -0.3
v 0.6 0.2 -0.3
v 0.7 0.2 -0.3
v 0.9 0.2 -0.3
v -0.3 0.2 -0.4
v 0.4 0.2 -0.4
v -0.3 0.2 -0.8
v 0.4 0.2 -0.8
v -1 0.2 -0.9
v 1 0.2 -0.9
v -1 1.8 0.8
v 1 1.8 0.8
v -1 1.8 0.7
v 1 1.8 0.7
v -1 1.8 0.6
v 1 1.8 0.6

# faces
f 3/2/1 2/2/1 1/2/1
f 4/2/1 2/2/1 3/2/1
f 5/2/1 2/2/1 4/2/1
f 6/2/1 3/2/1 1/2/1
f 7/4/1 4/4/1 3/4/1
f 7/2/1 3/2/1 6/2/1
f 8/4/1 4/4/1 7/4/1
f 11/5/1 10/5/1 9/5/1
f 12/5/1 10/5/1 11/5/1
f 13/5/2 14/5/2 15/5/2
f 15/5/2 14/5/2 16/5/2
f 16/5/2 14/5/2 17/5/2
f 17/5/2 14/5/2 18/5/2
f 20/4/2 21/4/2 23/4/2
f 21/2/2 22/2/2 23/2/2
f 23/2/2 22/2/2 24/2/2
f 19/2/2 20/2/2 25/2/2
f 20/4/2 23/4/2 26/4/2
f 25/2/2 20/2/2 26/2/2
f 26/4/2 23/4/2 27/4/2
f 31/2/3 29/2/3 28/2/3
f 32/2/3 29/2/3 31/2/3
f 33/2/3 29/2/3 32/2/3
f 34/2/3 29/2/3 33/2/3
f 35/2/3 29/2/3 34/2/3
f 36/2/3 32/2/3 31/2/3
f 37/1/3 33/1/3 32/1/3
f 37/2/3 32/2/3 36/2/3
f 38/2/3 34/2/3 33/2/3
f 38/1/3 35/1/3 34/1/3
f 39/2/3 29/2/3 35/2/3
f 39/1/3 35/1/3 38/1/3
f 40/2/3 36/2/3 31/2/3
f 40/1/3 37/1/3 36/1/3
f 41/1/3 33/1/3 37/1/3
f 41/1/3 37/1/3 40/1/3
f 42/2/3 38/2/3 33/2/3
f 42/2/3 39/2/3 38/2/3
f 43/2/3 29/2/3 39/2/3
f 43/2/3 39/2/3 42/2/3
f 44/1/3 33/1/3 41/1/3
f 44/2/3 41/2/3 40/2/3
f 45/2/3 42/2/3 33/2/3
f 45/1/3 33/1/3 44/1/3
f 46/1/3 43/1/3 42/1/3
f 46/2/3 42/2/3 45/2/3
f 47/2/3 29/2/3 43/2/3
f 47/1/3 43/1/3 46/1/3
f 48/5/3 31/5/3 30/5/3
f 49/2/3 46/2/3 45/2/3
f 49/5/3 31/5/3 48/5/3
f 49/2/3 44/2/3 40/2/3
f 49/2/3 47/2/3 46/2/3
f 49/2/3 45/2/3 44/2/3
f 49/2/3 40/2/3 31/2/3
f 50/2/3 47/2/3 49/2/3
f 51/2/3 29/2/3 47/2/3
f 51/2/3 47/2/3 50/2/3
f 52/4/4 53/4/4 54/4/4
f 54/4/4 53/4/4 55/4/4
f 54/5/4 55/5/4 56/5/4
f 56/5/4 55/5/4 57/5/4
f 57/5/4 55/5/4 58/5/4
f 58/5/4 55/5/4 59/5/4
f 54/5/4 56/5/4 60/5/4
f 56/1/4 57/1/4 61/1/4
f 60/5/4 56/5/4 61/5/4
f 57/5/4 58/5/4 62/5/4
f 58/1/4 59/1/4 62/1/4
f 59/5/4 55/5/4 63/5/4
f 62/1/4 59/1/4 63/1/4
f 54/5/4 60/5/4 64/5/4
f 60/1/4 61/1/4 64/1/4
f 61/1/4 57/1/4 65/1/4
f 64/1/4 61/1/4 65/1/4
f 57/5/4 62/5/4 66/5/4
f 62/5/4 63/5/4 66/5/4
f 63/5/4 55/5/4 67/5/4
f 66/5/4 63/5/4 67/5/4
f 65/1/4 57/1/4 68/1/4
f 64/5/4 65/5/4 68/5/4
f 57/5/4 66/5/4 69/5/4
f 68/1/4 57/1/4 69/1/4
f 66/1/4 67/1/4 70/1/4
f 69/5/4 66/5/4 70/5/4
f 67/5/4 55/5/4 71/5/4
f 70/1/4 67/1/4 71/1/4
f 52/4/4 54/4/4 72/4/4
f 69/5/4 70/5/4 72/5/4
f 70/5/4 71/5/4 72/5/4
f 68/5/4 69/5/4 72/5/4
f 54/5/4 64/5/4 72/5/4
f 64/5/4 68/5/4 72/5/4
f 71/5/4 55/5/4 73/5/4
f 72/5/4 71/5/4 73/5/4
f 55/4/4 53/4/4 73/4/4
f 52/4/4 72/4/4 74/4/4
f 72/4/4 73/4/4 74/4/4
f 73/4/4 53/4/4 75/4/4
f 74/4/4 73/4/4 75/4/4
f 76/5/4 77/5/4 78/5/4
f 78/5/4 77/5/4 79/5/4
f 80/2/4 81/2/4 82/2/4
f 82/2/4 81/2/4 83/2/4
f 86/5/5 85/5/5 84/5/5
f 87/5/5 85/5/5 86/5/5
f 92/2/5 91/2/5 90/2/5
f 93/2/5 91/2/5 92/2/5
f 94/4/5 93/4/5 92/4/5
f 95/4/5 93/4/5 94/4/5
f 96/2/5 89/2/5 88/2/5
f 97/2/5 95/2/5 94/2/5
f 98/2/5 96/2/5 88/2/5
f 98/2/5 97/2/5 96/2/5
f 99/2/5 95/2/5 97/2/5
f 99/2/5 97/2/5 98/2/5
f 100/2/6 101/2/6 102/2/6
f 102/2/6 101/2/6 103/2/6
f 103/2/6 101/2/6 104/2/6
f 104/2/6 101/2/6 105/2/6
f 105/2/6 101/2/6 106/2/6
f 106/2/6 101/2/6 107/2/6
f 107/2/6 101/2/6 108/2/6
f 108/2/6 101/2/6 109/2/6
f 109/2/6 101/2/6 110/2/6
f 110/2/6 101/2/6 111/2/6
f 111/2/6 101/2/6 112/2/6
f 112/2/6 101/2/6 113/2/6
f 113/2/6 101/2/6 114/2/6
f 114/2/6 101/2/6 115/2/6
f 100/2/6 102/2/6 116/2/6
f 102/5/6 103/5/6 116/5/6
f 103/2/6 104/2/6 117/2/6
f 116/5/6 103/5/6 117/5/6
f 104/5/6 105/5/6 118/5/6
f 117/2/6 104/2/6 118/2/6
f 105/2/6 106/2/6 119/2/6
f 118/5/6 105/5/6 119/5/6
f 106/5/6 107/5/6 120/5/6
f 119/2/6 106/2/6 120/2/6
f 107/2/6 108/2/6 121/2/6
f 120/5/6 107/5/6 121/5/6
f 108/5/6 109/5/6 122/5/6
f 121/2/6 108/2/6 122/2/6
f 109/2/6 110/2/6 123/2/6
f 122/5/6 109/5/6 123/5/6
f 110/5/6 111/5/6 124/5/6
f 123/2/6 110/2/6 124/2/6
f 111/2/6 112/2/6 125/2/6
f 124/5/6 111/5/6 125/5/6
f 112/5/6 113/5/6 126/5/6
f 125/2/6 112/2/6 126/2/6
f 113/2/6 114/2/6 127/2/6
f 126/5/6 113/5/6 127/5/6
f 114/5/6 115/5/6 128/5/6
f 127/2/6 114/2/6 128/2/6
f 115/2/6 101/2/6 129/2/6
f 128/5/6 115/5/6 129/5/6
f 127/2/6 128/2/6 130/2/6
f 126/2/6 127/2/6 130/2/6
f 128/2/6 129/2/6 130/2/6
f 125/2/6 126/2/6 130/2/6
f 124/2/6 125/2/6 130/2/6
f 123/2/6 124/2/6 130/2/6
f 122/2/6 123/2/6 130/2/6
f 121/2/6 122/2/6 130/2/6
f 120/2/6 121/2/6 130/2/6
f 119/2/6 120/2/6 130/2/6
f 118/2/6 119/2/6 130/2/6
f 117/2/6 118/2/6 130/2/6
f 116/2/6 117/2/6 130/2/6
f 100/2/6 116/2/6 130/2/6
f 130/2/6 129/2/6 131/2/6
f 131/2/6 129/2/6 132/2/6
f 132/2/6 129/2/6 133/2/6
f 133/2/6 129/2/6 134/2/6
f 134/2/6 129/2/6 135/2/6
f 135/2/6 129/2/6 136/2/6
f 136/2/6 129/2/6 137/2/6
f 137/2/6 129/2/6 138/2/6
f 138/2/6 129/2/6 139/2/6
f 139/2/6 129/2/6 140/2/6
f 140/2/6 129/2/6 141/2/6
f 141/2/6 129/2/6 142/2/6
f 142/2/6 129/2/6 143/2/6
f 143/2/6 129/2/6 144/2/6
f 144/2/6 129/2/6 145/2/6
f 145/2/6 129/2/6 146/2/6
f 129/2/6 101/2/6 147/2/6
f 146/2/6 129/2/6 147/2/6
f 100/2/6 130/2/6 148/2/6
f 130/5/6 131/5/6 148/5/6
f 131/2/6 132/2/6 149/2/6
f 148/5/6 131/5/6 149/5/6
f 132/5/6 133/5/6 150/5/6
f 149/2/6 132/2/6 150/2/6
f 133/2/6 134/2/6 151/2/6
f 150/5/6 133/5/6 151/5/6
f 134/5/6 135/5/6 152/5/6
f 151/2/6 134/2/6 152/2/6
f 135/2/6 136/2/6 153/2/6
f 152/5/6 135/5/6 153/5/6
f 136/5/6 137/5/6 154/5/6
f 153/2/6 136/2/6 154/2/6
f 137/2/6 138/2/6 155/2/6
f 154/5/6 137/5/6 155/5/6
f 138/5/6 139/5/6 156/5/6
f 155/2/6 138/2/6 156/2/6
f 139/2/6 140/2/6 157/2/6
f 156/5/6 139/5/6 157/5/6
f 140/5/6 141/5/6 158/5/6
f 157/2/6 140/2/6 158/2/6
f 141/2/6 142/2/6 159/2/6
f 158/5/6 141/5/6 159/5/6
f 142/5/6 143/5/6 160/5/6
f 159/2/6 142/2/6 160/2/6
f 143/2/6 144/2/6 161/2/6
f 160/5/6 143/5/6 161/5/6
f 144/5/6 145/5/6 162/5/6
f 161/2/6 144/2/6 162/2/6
f 145/2/6 146/2/6 163/2/6
f 162/5/6 145/5/6 163/5/6
f 146/5/6 147/5/6 164/5/6
f 163/2/6 146/2/6 164/2/6
f 147/2/6 101/2/6 165/2/6
f 164/5/6 147/5/6 165/5/6
f 161/2/6 162/2/6 166/2/6
f 163/2/6 164/2/6 166/2/6
f 164/2/6 165/2/6 166/2/6
f 160/2/6 161/2/6 166/2/6
f 159/2/6 160/2/6 166/2/6
f 158/2/6 159/2/6 166/2/6
f 157/2/6 158/2/6 166/2/6
f 156/2/6 157/2/6 166/2/6
f 155/2/6 156/2/6 166/2/6
f 154/2/6 155/2/6 166/2/6
f 153/2/6 154/2/6 166/2/6
f 152/2/6 153/2/6 166/2/6
f 151/2/6 152/2/6 166/2/6
f 150/2/6 151/2/6 166/2/6
f 149/2/6 150/2/6 166/2/6
f 148/2/6 149/2/6 166/2/6
f 100/2/6 148/2/6 166/2/6
f 162/2/6 163/2/6 166/2/6
f 166/2/6 165/2/6 167/2/6
f 167/2/6 165/2/6 168/2/6
f 168/2/6 165/2/6 169/2/6
f 169/2/6 165/2/6 170/2/6
f 170/2/6 165/2/6 171/2/6
f 171/2/6 165/2/6 172/2/6
f 172/2/6 165/2/6 173/2/6
f 173/2/6 165/2/6 174/2/6
f 174/2/6 165/2/6 175/2/6
f 175/2/6 165/2/6 176/2/6
f 176/2/6 165/2/6 177/2/6
f 177/2/6 165/2/6 178/2/6
f 178/2/6 165/2/6 179/2/6
f 179/2/6 165/2/6 180/2/6
f 165/2/6 101/2/6 181/2/6
f 180/2/6 165/2/6 181/2/6
f 100/2/6 166/2/6 182/2/6
f 166/5/6 167/5/6 182/5/6
f 167/2/6 168/2/6 183/2/6
f 182/5/6 167/5/6 183/5/6
f 168/5/6 169/5/6 184/5/6
f 183/2/6 168/2/6 184/2/6
f 169/2/6 170/2/6 185/2/6
f 184/5/6 169/5/6 185/5/6
f 170/5/6 171/5/6 186/5/6
f 185/2/6 170/2/6 186/2/6
f 171/2/6 172/2/6 187/2/6
f 186/5/6 171/5/6 187/5/6
f 172/5/6 173/5/6 188/5/6
f 187/2/6 172/2/6 188/2/6
f 173/2/6 174/2/6 189/2/6
f 188/5/6 173/5/6 189/5/6
f 174/5/6 175/5/6 190/5/6
f 189/2/6 174/2/6 190/2/6
f 175/2/6 176/2/6 191/2/6
f 190/5/6 175/5/6 191/5/6
f 176/5/6 177/5/6 192/5/6
f 191/2/6 176/2/6 192/2/6
f 177/2/6 178/2/6 193/2/6
f 192/5/6 177/5/6 193/5/6
f 178/5/6 179/5/6 194/5/6
f 193/2/6 178/2/6 194/2/6
f 179/2/6 180/2/6 195/2/6
f 194/5/6 179/5/6 195/5/6
f 180/5/6 181/5/6 196/5/6
f 195/2/6 180/2/6 196/2/6
f 181/2/6 101/2/6 197/2/6
f 196/5/6 181/5/6 197/5/6
f 193/2/6 194/2/6 198/2/6
f 195/2/6 196/2/6 198/2/6
f 196/2/6 197/2/6 198/2/6
f 192/2/6 193/2/6 198/2/6
f 191/2/6 192/2/6 198/2/6
f 190/2/6 191/2/6 198/2/6
f 189/2/6 190/2/6 198/2/6
f 188/2/6 189/2/6 198/2/6
f 187/2/6 188/2/6 198/2/6
f 186/2/6 187/2/6 198/2/6
f 185/2/6 186/2/6 198/2/6
f 184/2/6 185/2/6 198/2/6
f 183/2/6 184/2/6 198/2/6
f 182/2/6 183/2/6 198/2/6
f 100/2/6 182/2/6 198/2/6
f 194/2/6 195/2/6 198/2/6
f 198/2/6 197/2/6 199/2/6
f 199/2/6 197/2/6 200/2/6
f 200/2/6 197/2/6 201/2/6
f 201/2/6 197/2/6 202/2/6
f 202/2/6 197/2/6 203/2/6
f 203/2/6 197/2/6 204/2/6
f 204/2/6 197/2/6 205/2/6
f 205/2/6 197/2/6 206/2/6
f 197/2/6 101/2/6 207/2/6
f 206/2/6 197/2/6 207/2/6
f 100/2/6 198/2/6 208/2/6
f 198/5/6 199/5/6 208/5/6
f 199/2/6 200/2/6 209/2/6
f 208/5/6 199/5/6 209/5/6
f 200/5/6 201/5/6 210/5/6
f 209/2/6 200/2/6 210/2/6
f 201/2/6 202/2/6 211/2/6
f 210/5/6 201/5/6 211/5/6
f 202/5/6 203/5/6 212/5/6
f 211/2/6 202/2/6 212/2/6
f 203/2/6 204/2/6 213/2/6
f 212/5/6 203/5/6 213/5/6
f 204/5/6 205/5/6 214/5/6
f 213/2/6 204/2/6 214/2/6
f 205/2/6 206/2/6 215/2/6
f 214/5/6 205/5/6 215/5/6
f 206/5/6 207/5/6 216/5/6
f 215/2/6 206/2/6 216/2/6
f 207/2/6 101/2/6 217/2/6
f 216/5/6 207/5/6 217/5/6
f 213/2/6 214/2/6 218/2/6
f 215/2/6 216/2/6 218/2/6
f 216/2/6 217/2/6 218/2/6
f 212/2/6 213/2/6 218/2/6
f 211/2/6 212/2/6 218/2/6
f 210/2/6 211/2/6 218/2/6
f 209/2/6 210/2/6 218/2/6
f 208/2/6 209/2/6 218/2/6
f 214/2/6 215/2/6 218/2/6
f 218/2/6 217/2/6 219/2/6
f 208/2/6 218/2/6 220/2/6
f 218/5/6 219/5/6 220/5/6
f 219/2/6 217/2/6 221/2/6
f 220/5/6 219/5/6 221/5/6
f 100/2/6 208/2/6 222/2/6
f 208/2/6 220/2/6 222/2/6
f 220/2/6 221/2/6 222/2/6
f 217/2/6 101/2/6 223/2/6
f 222/2/6 221/2/6 223/2/6
f 221/2/6 217/2/6 223/2/6
f 224/2/6 225/2/6 226/2/6
f 226/2/6 225/2/6 227/2/6
f 226/4/6 227/4/6 228/4/6
f 228/4/6 227/4/6 229/4/6
